<svg xmlns="http://www.w3.org/2000/svg" xmlns:svg="http://www.w3.org/2000/svg" xmlns:xlink="http://www.w3.org/1999/xlink" id="Layer_1" x="0" y="0" enable-background="new 0 0 141.4 51" version="1.1" viewBox="0 0 141.4 51" xml:space="preserve"><style type="text/css">.st0{fill:#fff;fill-opacity:.9253}.st1{opacity:.7;fill:#fff}.st2{opacity:.5}.st2,.st3{fill:#fff}</style><title id="title7">Kibana-Full-Logo</title><g id="text4159" transform="translate(0,-13.509761)"><path id="path4891" d="M53.3,50.5v-6.7l2.1-0.2l4,7h4.1l-5-8.8l4.8-7.7h-4l-3.9,6.4 l-2,0.2V27.1h-3.6v23.4C49.7,50.5,53.3,50.5,53.3,50.5z" class="st0"/><path id="path4893" d="M66.3,50.5h3.6V34h-3.6C66.3,34,66.3,50.5,66.3,50.5z M66.3,31.2h3.6v-3.8h-3.6V31.2z" class="st0"/><path id="path4895" d="M82,33.7c-1.9,0-4.1,1-4.1,1v-7.5h-3.6v23.4 c0,0,4.3,0.4,6,0.4c5.9,0,8.1-2,8.1-8.9C88.4,35.9,86.5,33.7,82,33.7z M80.3,47.7c-0.7,0-2.5-0.1-2.5-0.1v-10c0,0,1.9-0.7,3.7-0.7 c2.2,0,3.2,1.5,3.2,5.2C84.7,46.1,84,47.7,80.3,47.7z" class="st0"/><path id="path4897" d="M104.2,39.1c0-3.8-1.7-5.5-5.7-5.5c-3,0-6.6,0.9-6.6,0.9 l0.1,2.5c0,0,4-0.3,6.2-0.3c1.6,0,2.4,0.6,2.4,2.4v1.2l-4.3,0.4c-3.5,0.3-5.5,1.5-5.5,5c0,3.4,1.7,5.3,4.9,5.3 c2.7,0,5.3-1.2,5.3-1.2c1.2,1,2.4,1.2,4.4,1.2l0.1-2.7c-1-0.1-1.4-0.5-1.5-1.5L104.2,39.1L104.2,39.1z M100.6,42.8v4.4 c0,0-2.2,0.7-4.1,0.7c-1.4,0-2-0.9-2-2.4s0.8-2.2,2.3-2.3L100.6,42.8z" class="st0"/><path id="path4899" d="M112.3,50.5V37.7c0,0,1.8-0.9,3.7-0.9c2.5,0,2.9,1.6,2.9,4.9 v8.8h3.6v-8.9c0-5.4-1.1-8-5.7-8c-2.1,0-4.6,1.4-4.6,1.4v-1h-3.6v16.5C108.7,50.5,112.3,50.5,112.3,50.5z" class="st0"/><path id="path4901" d="M138.9,39.1c0-3.8-1.7-5.5-5.7-5.5c-3,0-6.6,0.9-6.6,0.9 l0.1,2.5c0,0,4-0.3,6.2-0.3c1.6,0,2.4,0.6,2.4,2.4v1.2l-4.3,0.4c-3.5,0.3-5.5,1.5-5.5,5c0,3.4,1.7,5.3,4.9,5.3 c2.7,0,5.3-1.2,5.3-1.2c1.2,1,2.4,1.2,4.4,1.2l0.1-2.7c-1-0.1-1.4-0.5-1.5-1.5L138.9,39.1L138.9,39.1z M135.3,42.8v4.4 c0,0-2.2,0.7-4.1,0.7c-1.4,0-2-0.9-2-2.4s0.8-2.2,2.3-2.3L135.3,42.8z" class="st0"/></g><g><path d="M19.4,23.8L39.3,0H0v19.1c0.2,0,0.5,0,0.7,0C7.5,19.1,13.9,20.8,19.4,23.8z" class="st1"/><polygon points="0 47.3 0 47.3 19.4 23.8" class="st1"/><path d="M24.5,27.1c0.2,0.2,0.4,0.3,0.5,0.4C24.9,27.4,24.7,27.3,24.5,27.1z" class="st1"/><path d="M23,26c0.1,0.1,0.2,0.1,0.3,0.2C23.2,26.2,23.1,26.1,23,26z" class="st1"/><path d="M25.8,28.2L7,51h32.2C37.5,41.9,32.7,33.9,25.8,28.2z" class="st1"/><path d="M22.8,25.9c-1.4-1-3.4-2.1-3.4-2.1c1.2,0.7,2.4,1.4,3.6,2.2C22.9,26,22.9,26,22.8,25.9z" class="st2"/><path d="M25.9,28.2c0,0-0.3-0.2-0.8-0.6C25.3,27.8,25.6,28,25.9,28.2L25.9,28.2z" class="st2"/><path d="M23.3,26.3c0.4,0.3,0.8,0.6,1.2,0.9C24.2,26.9,23.8,26.6,23.3,26.3z" class="st2"/><path d="M25.1,27.6c-0.2-0.1-0.3-0.3-0.5-0.4c-0.4-0.3-0.8-0.6-1.2-0.9c-0.1-0.1-0.2-0.1-0.3-0.2 c-1.1-0.8-2.3-1.5-3.6-2.2L0,47.3V51h7l18.9-22.8C25.6,28,25.3,27.8,25.1,27.6z" class="st2"/><path d="M0.7,19.1c-0.2,0-0.5,0-0.7,0v28.2l19.4-23.4C13.9,20.8,7.5,19.1,0.7,19.1z" class="st3"/></g></svg>